<?xml version="1.0" encoding="UTF-8" standalone="no"?>
<svg
   xmlns:dc="http://purl.org/dc/elements/1.1/"
   xmlns:cc="http://creativecommons.org/ns#"
   xmlns:rdf="http://www.w3.org/1999/02/22-rdf-syntax-ns#"
   xmlns:svg="http://www.w3.org/2000/svg"
   xmlns="http://www.w3.org/2000/svg"
   xmlns:xlink="http://www.w3.org/1999/xlink"
   version="1.1"
   id="svg2"
   viewBox="0 0 750.00001 1050"
   height="1050"
   width="750">
  <title
     id="title4795">SprayCan Graffiti</title>
  <defs
     id="defs4">
    <linearGradient
       id="linearGradient4728">
      <stop
         id="stop4730"
         offset="0"
         style="stop-color:#b9ccd0;stop-opacity:1;" />
      <stop
         id="stop4732"
         offset="1"
         style="stop-color:#b9ccd0;stop-opacity:0;" />
    </linearGradient>
    <linearGradient
       id="linearGradient4696">
      <stop
         id="stop4698"
         offset="0"
         style="stop-color:#b8cccd;stop-opacity:1;" />
      <stop
         id="stop4700"
         offset="1"
         style="stop-color:#b8cccd;stop-opacity:0;" />
    </linearGradient>
    <linearGradient
       id="linearGradient4672">
      <stop
         id="stop4674"
         offset="0"
         style="stop-color:#666666;stop-opacity:1;" />
      <stop
         style="stop-color:#ffffff;stop-opacity:0"
         offset="0.10751948"
         id="stop4684" />
      <stop
         style="stop-color:#ffffff;stop-opacity:0"
         offset="0.48148888"
         id="stop4680" />
      <stop
         id="stop4682"
         offset="0.86225122"
         style="stop-color:#ffffff;stop-opacity:0.94117647" />
      <stop
         id="stop4676"
         offset="1"
         style="stop-color:#666666;stop-opacity:1" />
    </linearGradient>
    <linearGradient
       id="linearGradient4662">
      <stop
         id="stop4664"
         offset="0"
         style="stop-color:#789a96;stop-opacity:1;" />
      <stop
         style="stop-color:#ffffff;stop-opacity:1"
         offset="0.49149135"
         id="stop4670" />
      <stop
         id="stop4666"
         offset="1"
         style="stop-color:#7e9c97;stop-opacity:1" />
    </linearGradient>
    <linearGradient
       id="linearGradient4628">
      <stop
         id="stop4630"
         offset="0"
         style="stop-color:#01befd;stop-opacity:1;" />
      <stop
         id="stop4632"
         offset="1"
         style="stop-color:#01befd;stop-opacity:0;" />
    </linearGradient>
    <linearGradient
       id="linearGradient4620">
      <stop
         id="stop4622"
         offset="0"
         style="stop-color:#01befd;stop-opacity:1;" />
      <stop
         id="stop4624"
         offset="1"
         style="stop-color:#01befd;stop-opacity:0;" />
    </linearGradient>
    <linearGradient
       id="linearGradient4612">
      <stop
         id="stop4614"
         offset="0"
         style="stop-color:#01befd;stop-opacity:1;" />
      <stop
         id="stop4616"
         offset="1"
         style="stop-color:#01befd;stop-opacity:0;" />
    </linearGradient>
    <linearGradient
       id="linearGradient4604">
      <stop
         id="stop4606"
         offset="0"
         style="stop-color:#01befd;stop-opacity:1;" />
      <stop
         id="stop4608"
         offset="1"
         style="stop-color:#01befd;stop-opacity:0;" />
    </linearGradient>
    <marker
       style="overflow:visible"
       orient="auto"
       refY="0"
       refX="0"
       id="RazorWire">
      <path
         d="m 0.02272727,-0.74009011 0,1.4375 -7.78124997,2.31250001 18.4374997,0 -7.1874997,-2.31250001 0,-1.4375 7.2499997,-2.15624999 -18.4687497,0 7.74999997,2.15624999 z"
         style="fill:#000000;fill-opacity:1;fill-rule:evenodd;stroke:#000000;stroke-width:0.1pt;stroke-opacity:1"
         transform="scale(0.8,0.8)"
         id="path4437" />
    </marker>
    <marker
       style="overflow:visible"
       id="TriangleOutM"
       refX="0"
       refY="0"
       orient="auto">
      <path
         transform="scale(0.4,0.4)"
         style="fill:#000000;fill-opacity:1;fill-rule:evenodd;stroke:#000000;stroke-width:1pt;stroke-opacity:1"
         d="m 5.77,0 -8.65,5 0,-10 8.65,5 z"
         id="path4350" />
    </marker>
    <marker
       style="overflow:visible"
       id="Arrow2Lstart"
       refX="0"
       refY="0"
       orient="auto">
      <path
         transform="matrix(1.1,0,0,1.1,1.1,0)"
         d="M 8.7185878,4.0337352 -2.2072895,0.01601326 8.7185884,-4.0017078 c -1.7454984,2.3720609 -1.7354408,5.6174519 -6e-7,8.035443 z"
         style="fill:#000000;fill-opacity:1;fill-rule:evenodd;stroke:#000000;stroke-width:0.625;stroke-linejoin:round;stroke-opacity:1"
         id="path4223" />
    </marker>
    <linearGradient
       gradientUnits="userSpaceOnUse"
       y2="530.21936"
       x2="358.21429"
       y1="550.05042"
       x1="359.86478"
       id="linearGradient4610"
       xlink:href="#linearGradient4604" />
    <linearGradient
       gradientUnits="userSpaceOnUse"
       y2="543.2453"
       x2="301.78308"
       y1="558.65015"
       x1="299.51022"
       id="linearGradient4618"
       xlink:href="#linearGradient4612" />
    <linearGradient
       gradientUnits="userSpaceOnUse"
       y2="571.5296"
       x2="340.42142"
       y1="586.42938"
       x1="321.73361"
       id="linearGradient4626"
       xlink:href="#linearGradient4620" />
    <linearGradient
       gradientUnits="userSpaceOnUse"
       y2="617.99664"
       x2="315.1676"
       y1="663.95856"
       x1="307.59146"
       id="linearGradient4634"
       xlink:href="#linearGradient4628" />
    <linearGradient
       gradientUnits="userSpaceOnUse"
       y2="403.28195"
       x2="355.45728"
       y1="416.76801"
       x1="300.76553"
       id="linearGradient4668"
       xlink:href="#linearGradient4662" />
    <linearGradient
       gradientUnits="userSpaceOnUse"
       y2="396.25485"
       x2="324.50208"
       y1="399.20688"
       x1="315.25839"
       id="linearGradient4678"
       xlink:href="#linearGradient4672" />
    <linearGradient
       gradientUnits="userSpaceOnUse"
       y2="497.36221"
       x2="258.15302"
       y1="455.93365"
       x1="310.71426"
       id="linearGradient4702"
       xlink:href="#linearGradient4696" />
    <linearGradient
       gradientUnits="userSpaceOnUse"
       y2="690.86218"
       x2="243"
       y1="699.86218"
       x1="304.5"
       id="linearGradient4734"
       xlink:href="#linearGradient4728" />
  </defs>
  <metadata
     id="metadata7">
    <rdf:RDF>
      <cc:Work
         rdf:about="">
        <dc:format>image/svg+xml</dc:format>
        <dc:type
           rdf:resource="http://purl.org/dc/dcmitype/StillImage" />
        <dc:title>SprayCan Graffiti</dc:title>
        <cc:license
           rdf:resource="http://creativecommons.org/publicdomain/zero/1.0/" />
        <dc:date>1471377267</dc:date>
        <dc:creator>
          <cc:Agent>
            <dc:title>Dig Scrappy</dc:title>
          </cc:Agent>
        </dc:creator>
        <dc:description>SprayCan Graffiti Vector Painting</dc:description>
        <dc:rights>
          <cc:Agent>
            <dc:title>CC0</dc:title>
          </cc:Agent>
        </dc:rights>
        <dc:publisher>
          <cc:Agent>
            <dc:title>Dig Scrappy</dc:title>
          </cc:Agent>
        </dc:publisher>
        <dc:subject>
          <rdf:Bag>
            <rdf:li>Spray</rdf:li>
            <rdf:li>Can</rdf:li>
            <rdf:li>Graffiti</rdf:li>
          </rdf:Bag>
        </dc:subject>
      </cc:Work>
      <cc:License
         rdf:about="http://creativecommons.org/publicdomain/zero/1.0/">
        <cc:permits
           rdf:resource="http://creativecommons.org/ns#Reproduction" />
        <cc:permits
           rdf:resource="http://creativecommons.org/ns#Distribution" />
        <cc:permits
           rdf:resource="http://creativecommons.org/ns#DerivativeWorks" />
      </cc:License>
    </rdf:RDF>
  </metadata>
  <g
     transform="translate(0,-2.3621605)"
     id="layer1">
    <g
       transform="matrix(1.863855,0,0,1.863855,-267.42448,-539.38183)"
       id="g4746">
      <path
         style="fill:#0081ff;fill-opacity:1;fill-rule:evenodd;stroke:none;stroke-width:1px;stroke-linecap:butt;stroke-linejoin:miter;stroke-opacity:1"
         d="m 263.90235,523.42108 10.98541,-12.87945 34.85026,-14.89975 55.17959,-14.01586 55.30585,-6.43973 31.69354,5.68211 9.21764,4.29315 3.91434,14.77348 3.6618,9.21764 3.78807,43.18402 0.63135,36.49176 -2.39911,37.24938 -6.43973,42.80521 -12.12183,45.83568 c 0,0 -4.54568,15.9099 -5.3033,15.53109 -0.75761,-0.37881 -21.97081,-19.69797 -22.47589,-19.95051 -0.50508,-0.25254 -44.95179,-22.09709 -44.95179,-22.09709 l -40.78491,-13.38452 -31.56727,-7.32361 -41.03744,-4.16687 4.79822,-10.98541 3.78807,-19.69798 -1.38896,-13.76333 -9.34391,7.19734 -7.07106,-10.22779 -2.65166,-11.36422 13.38453,-6.43972 -0.75762,-12.87945 1.13642,-10.6066 9.21765,-7.57614 -0.50508,-8.71257 -10.35406,-3.53553 -1.13643,-20.07679 z"
         id="path4597" />
      <path
         style="fill:#01437d;fill-opacity:1;fill-rule:evenodd;stroke:none;stroke-width:1px;stroke-linecap:butt;stroke-linejoin:miter;stroke-opacity:1"
         d="m 313.08539,611.94688 c -9.64286,2.73809 -18.55863,8.6864 -24.01786,16.78572 -6.66692,9.89104 -4.71164,23.38351 -7.9961,34.8796 L 266.875,662.63007 c 0,0 4.91675,-12.10844 6.16071,-18.48215 1.61097,-8.2542 1.70147,-24.03139 1.70147,-24.03139 12.96175,-5.54921 28.86325,-11.11905 38.34821,-8.16965 z"
         id="path4581" />
      <path
         style="fill:#01437d;fill-opacity:1;fill-rule:evenodd;stroke:none;stroke-width:1px;stroke-linecap:butt;stroke-linejoin:miter;stroke-opacity:1"
         d="m 273.60206,514.10459 c 4.62591,-4.41459 8.93357,32.28789 5.47444,44.93238 -4.85622,0.76799 -8.95749,-0.007 -12.64793,-5.06762 l -2.32143,-30.80358 z"
         id="path4579" />
      <path
         style="fill:#01437d;fill-opacity:1;fill-rule:evenodd;stroke:none;stroke-width:1px;stroke-linecap:butt;stroke-linejoin:miter;stroke-opacity:1"
         d="m 278.67583,595.64698 c 0,0 -3.80148,-4.5619 -4.67195,-7.3236 -0.88651,-2.81258 -0.94125,-5.94399 -0.37881,-8.83884 0.29099,-1.49771 1.89404,-4.16688 1.89404,-4.16688 0,0 3.51858,8.15242 7.07107,10.35407 3.90091,2.41758 9.33778,3.4351 13.81562,2.42974 4.12334,-0.92575 8.91281,-6.59662 10.42804,-7.4805 1.51522,-0.88389 3.6618,-8.08123 3.6618,-8.08123 l -10.73287,5.05077 c -3.72526,1.75306 -9.37066,1.33705 -13.13198,-0.75762 l -8.96511,-9.09137 c 0,0 -5.6236,3.01281 -7.57614,5.42957 -1.32677,1.64222 -2.65165,5.17703 -2.52538,5.80838 0.12626,0.63134 -0.30566,7.9167 -0.12627,11.86929 0.11317,2.49353 0.75761,7.44987 0.75761,7.44987 z"
         id="path4573" />
      <path
         style="fill:none;fill-rule:evenodd;stroke:#000000;stroke-width:3;stroke-linecap:butt;stroke-linejoin:miter;stroke-opacity:1"
         d="m 263.40471,626.37632 c 0,0 10.05753,-7.84619 10.47158,-5.13369 2.74226,17.96486 -7.07417,42.49116 -6.81721,42.21084"
         id="path4567" />
      <path
         style="fill:none;fill-rule:evenodd;stroke:#000000;stroke-width:3;stroke-linecap:butt;stroke-linejoin:miter;stroke-opacity:1"
         d="m 266.42773,540.71994 c 0,0 -1.70727,11.05477 0.77556,15.27221 2.2162,3.76451 7.76958,1.28401 9.1997,4.74144 0.69009,1.66834 0.84318,4.26046 0.63131,6.25032 -0.36953,3.47051 -7.52642,4.33919 -9.09138,8.58629 -2.362,6.41019 -0.25254,23.17037 -0.25254,23.17037"
         id="path4565" />
      <path
         style="fill:url(#linearGradient4634);fill-opacity:1;fill-rule:evenodd;stroke:none;stroke-width:1px;stroke-linecap:butt;stroke-linejoin:miter;stroke-opacity:1"
         d="m 294.58574,633.90651 c -5.25397,4.24204 -4.43502,30.67366 -3.03046,31.06219 l 50.88643,10.10153 c 2.87654,-0.31962 9.1942,-42.93309 -3.03045,-46.08821 -12.22465,-3.15512 -35.83441,-2.33491 -44.82552,4.92449 z"
         id="path4589" />
      <path
         style="fill:#01437d;fill-opacity:1;fill-rule:evenodd;stroke:none;stroke-width:1px;stroke-linecap:butt;stroke-linejoin:miter;stroke-opacity:1"
         d="m 446.48743,479.85825 c 0.75761,2.52538 14.28772,80.93574 11.11167,121.47084 -3.03174,38.69331 -28.53681,112.88455 -28.53681,112.88455 l 17.93021,14.89975 12.87945,-40.91118 11.36421,-70.2056 0.75762,-64.64976 -5.80838,-53.53809 -9.09137,-17.67767 z"
         id="path4599" />
      <path
         style="fill:#ffffff;fill-opacity:1;fill-rule:evenodd;stroke:#000000;stroke-width:4;stroke-linecap:butt;stroke-linejoin:miter;stroke-opacity:1"
         d="m 429.23495,818.07649 c 9.01248,-6.64317 15.5488,-31.02825 22.71665,-45.86222 4.80667,-9.94747 10.35802,-21.24718 4.11983,-30.56635 -7.4922,-11.19253 -17.53301,-20.85396 -28.57143,-28.57143 -20.96536,-14.65785 -45.34411,-24.20554 -69.59953,-32.33412 -23.33654,-7.82064 -47.69887,-13.04746 -72.18618,-15.52302 -11.48967,-1.16156 -23.46577,-2.54705 -34.64286,0.35714 -7.4761,1.94255 -15.44998,5.10609 -20.35714,11.07143 -7.1339,8.67225 -5.95195,21.70233 -10.08666,32.14286 -2.99117,7.553 -8.90677,13.99934 -10.60225,21.94416 -2.02022,9.46652 -5.15012,21.43737 0.8585,29.02637 46.76362,59.06336 168.06701,95.37997 218.35107,58.31518 z"
         id="path3349" />
      <path
         style="fill:#000000;fill-opacity:1;fill-rule:evenodd;stroke:none;stroke-width:1px;stroke-linecap:butt;stroke-linejoin:miter;stroke-opacity:1"
         d="m 317.85714,743.07648 c 42.84322,16.549 127.38703,37.34665 118.3803,63.27531 -5.82137,16.7586 -17.0822,19.13706 -25.11576,22.13568 -32.371,12.08286 -65.03351,3.40407 -98.15739,-6.42884 -28.17487,-8.36378 -56.39075,-20.81875 -79.03572,-39.69643 -11.18206,-9.32178 -26.66273,-16.70888 -26.30602,-34.86258 0.66256,-33.71774 12.55936,-27.92882 34.16317,-22.99457 26.01067,5.94077 51.18312,8.95786 76.07142,18.57143 z"
         id="path3347" />
      <path
         style="opacity:1;fill:#ffffff;fill-opacity:1;fill-rule:evenodd;stroke:#000000;stroke-width:4;stroke-linecap:butt;stroke-linejoin:miter;stroke-opacity:1"
         d="m 293.57143,405.57649 c 0,0 2.46719,-12.2906 6.42857,-16.78571 5.0004,-5.67412 12.63661,-8.98799 20,-10.71429 7.42154,-1.73993 22.85714,0.71429 22.85714,0.71429 -4.47711,-25.14317 -9.9312,-50.61199 -16.42857,-76.42858 -35.09997,-1.34424 -60.36013,10.53183 -76.42857,33.92858 17.83614,22.20269 35.78778,44.34143 43.57143,69.28571 z"
         id="path3353" />
      <path
         style="fill:#000000;fill-opacity:1;fill-rule:evenodd;stroke:none;stroke-width:1px;stroke-linecap:butt;stroke-linejoin:miter;stroke-opacity:1"
         d="m 293.49653,406.18617 18.64633,-2.03825 c 0,0 -2.23936,-7.8954 0.1046,-10.50508 3.31542,-3.69125 7.38227,-5.4192 12.2258,-4.34327 3.67503,0.81636 7.31245,6.63406 7.31245,6.63406 5.18537,-3.87127 12.57055,-3.90001 13.61476,-14.77942 -8.34777,-2.26156 -16.69555,-2.29685 -25.04333,-3.43486 l -13.92857,5.71428 -7.14286,7.5 z"
         id="path3355" />
      <path
         style="fill:#000000;fill-opacity:1;fill-rule:evenodd;stroke:none;stroke-width:1px;stroke-linecap:butt;stroke-linejoin:miter;stroke-opacity:1"
         d="m 261.25,324.32649 13.98087,16.34377 c 0,0 6.80947,-3.95084 10.37695,-3.28825 5.45527,1.0132 13.00431,10.39073 13.00431,10.39073 0,0 -9.0772,-8.48555 -13.31812,-8.30915 -3.4045,0.14161 -6.04629,1.65754 -7.40251,4.13778 -1.80415,3.29939 -0.74083,7.768 0.67993,11.26083 2.25854,5.55242 4.6646,11.8398 9.64286,15.17857 1.40608,0.94302 3.369,1.34693 5,0.89286 2.51649,-0.70059 4.17635,-1.3314 5.89285,-5.16588 1.7165,-3.83448 -0.16063,-17.36956 -0.16063,-17.36956 0,0 2.63642,8.5647 2.66064,12.98187 0.0154,2.81918 -0.0321,5.96537 -1.60715,8.30357 -1.58652,2.35521 -5.47249,4.237 -7.14286,4.64286 -1.67037,0.40586 -1.78571,-0.17857 -1.78571,-0.17857 l 5.35714,18.39285 -3.75,9.64286 c 0,0 -8.21428,-20 -8.75,-20.71428 C 283.39286,380.75506 266.25,354.68363 265.53571,354.32649 264.82143,353.96935 250,335.75506 250,335.75506 Z"
         id="path3359" />
      <path
         style="fill:#000000;fill-opacity:1;fill-rule:evenodd;stroke:none;stroke-width:1px;stroke-linecap:butt;stroke-linejoin:miter;stroke-opacity:1"
         d="m 288.57143,349.59435 c 1.77823,0.79976 2.63236,3.09237 3.03571,5 0.33525,1.58553 0.73241,3.93612 -0.625,4.82142 -0.88347,0.5762 -2.23983,-0.20068 -3.03571,-0.89285 -1.30657,-1.13632 -1.95373,-3.01094 -2.14286,-4.73215 -0.14281,-1.29967 -0.13312,-2.92706 0.80357,-3.83928 0.47677,-0.46431 1.35735,-0.63011 1.96429,-0.35714 z"
         id="path3361" />
      <path
         style="fill:#4d4d4d;fill-opacity:1;fill-rule:evenodd;stroke:none;stroke-width:1px;stroke-linecap:butt;stroke-linejoin:miter;stroke-opacity:1"
         d="m 301.92729,305.95773 c 0,0 4.35398,7.26763 6.04297,11.13969 4.15616,9.52812 7.11133,19.58199 9.97525,29.54696 2.86392,9.96497 7.36956,28.16303 8.00091,28.79438 0.63135,0.63135 14.80784,0.92087 14.80784,0.92087 l -2.10062,-19.23492 -7.07107,-32.82995 c 0,0 -4.38281,-19.21393 -4.80456,-19.84329 -1.38963,-2.0737 -25.24441,0.009 -24.85072,1.50626 z"
         id="path3363" />
      <path
         style="fill:#999999;fill-opacity:1;fill-rule:evenodd;stroke:none;stroke-width:1px;stroke-linecap:butt;stroke-linejoin:miter;stroke-opacity:1"
         d="m 327.00887,304.50378 c -1.50122,-1.3546 -12.12314,-0.65564 -12.12314,-0.65564 0,0 8.0054,23.35534 11.39354,35.2201 3.49794,12.24927 9.21224,37.08984 9.21224,37.08984 l 5.18747,0.33547 c -1.82825,-24.92333 -6.30523,-47.04934 -13.67011,-71.98977 z"
         id="path3365" />
      <path
         style="fill:url(#linearGradient4678);fill-opacity:1;fill-rule:evenodd;stroke:#000000;stroke-width:4.2426405;stroke-linecap:butt;stroke-linejoin:miter;stroke-opacity:1"
         d="m 333.29794,404.0574 c -0.38324,-1.78572 -8.12585,-16.96428 -8.12585,-16.96428 0,0 -6.6498,0.8557 -9.67643,2.12305 -2.27571,0.9529 -6.7924,2.72004 -6.09296,4.1486 0.69945,1.42858 4.76613,21.40691 5.78178,22.47835 1.01567,1.07142 18.11346,-11.78572 18.11346,-11.78572 z"
         id="path4195" />
      <path
         style="fill:url(#linearGradient4668);fill-opacity:1;fill-rule:evenodd;stroke:#000000;stroke-width:3;stroke-linecap:butt;stroke-linejoin:miter;stroke-opacity:1"
         d="m 246.22468,449.30113 c 18.31068,-13.5263 28.23564,-33.59777 73.4886,-44.95179 67.58339,-16.95675 87.4442,1.40537 116.77069,1.26795"
         id="path3392" />
      <path
         style="fill:#ffffff;fill-opacity:1;fill-rule:evenodd;stroke:none;stroke-width:1px;stroke-linecap:butt;stroke-linejoin:miter;stroke-opacity:1"
         d="m 267.67857,515.75506 c -1.96428,-0.71428 -22.85714,-24.82143 -23.57143,-26.60714 -0.71428,-1.78572 -6.78571,-35.17857 -6.78571,-35.17857 l 21.60714,-12.67858 26.42857,-14.28571 23.75,-12.67857 36.07143,-8.57143 24.64286,-3.21429 25,0.17858 c 0,0 20.89286,0.35714 22.5,1.42857 1.60714,1.07143 25,3.21428 25,3.21428 l 8.21429,53.21429 -9.82143,18.39286 -50,0.35714 L 370,482.00506 c 0,0 -59.64286,13.39286 -60.89286,14.64286 -1.25,1.25 -41.42857,19.10714 -41.42857,19.10714 z"
         id="path4709" />
      <path
         style="fill:none;fill-rule:evenodd;stroke:#000000;stroke-width:4;stroke-linecap:butt;stroke-linejoin:miter;stroke-opacity:1"
         d="M 466.96429,500.04077 C 480.82766,593.3872 468.67908,665.64285 447.5,730.57649"
         id="path4569" />
      <path
         style="color:#000000;font-style:normal;font-variant:normal;font-weight:normal;font-stretch:normal;font-size:medium;line-height:normal;font-family:sans-serif;text-indent:0;text-align:start;text-decoration:none;text-decoration-line:none;text-decoration-style:solid;text-decoration-color:#000000;letter-spacing:normal;word-spacing:normal;text-transform:none;direction:ltr;block-progression:tb;writing-mode:lr-tb;baseline-shift:baseline;text-anchor:start;white-space:normal;clip-rule:nonzero;display:inline;overflow:visible;visibility:visible;opacity:1;isolation:auto;mix-blend-mode:normal;color-interpolation:sRGB;color-interpolation-filters:linearRGB;solid-color:#000000;solid-opacity:1;fill:#000000;fill-opacity:1;fill-rule:evenodd;stroke:none;stroke-width:4;stroke-linecap:butt;stroke-linejoin:miter;stroke-miterlimit:4;stroke-dasharray:none;stroke-dashoffset:0;stroke-opacity:1;color-rendering:auto;image-rendering:auto;shape-rendering:auto;text-rendering:auto;enable-background:accumulate"
         d="m 382.83203,400.44141 c -40.67154,-0.94533 -81.05949,11.53823 -115.08909,33.60648 -11.72106,8.1422 -25.18518,13.62737 -36.20219,22.73841 -7.64953,6.96152 -14.2351,18.45914 -8.70279,28.68776 5.2945,10.52131 10.82616,21.34857 16.24602,32.30524 3.08908,10.80484 7.73573,23.90949 20.16602,26.52148 13.2427,2.92486 7.32719,-10.24145 9.14306,-16.89545 4.13386,-15.148 20.58438,-20.25981 34.3159,-24.84952 39.86528,-14.01604 82.11085,-22.42483 124.49772,-20.72097 9.78259,0.34595 19.40693,2.52383 28.73616,5.20112 7.62855,-0.14934 4.92019,23.54127 15.59911,11.64321 9.47383,-10.53249 3.38116,-25.72512 -1.32767,-36.98276 -8.87022,-10.98529 -1.64721,-23.98347 -2.60497,-36.13685 -4.34562,-13.76086 -19.55934,-18.74131 -32.06344,-21.79393 -17.17213,-3.24466 -35.311,-2.60665 -52.71384,-3.32422 z m -0.0293,4 c 22.08746,1.26999 45.23402,-0.42548 66.0658,8.30984 11.16642,3.08276 18.55741,14.60355 13.6842,25.75461 -4.87999,13.36466 5.51808,24.56948 8.42631,36.97086 3.34227,6.35996 1.23678,22.91627 -5.06471,20.24516 -0.38959,-12.7653 -12.09185,-18.01777 -23.18728,-19.01453 -26.87379,-4.62322 -54.26179,-0.5252 -80.9975,3.13921 -27.45117,4.29283 -54.12511,12.96869 -79.39162,24.39739 -8.72333,5.11067 -20.56886,11.59079 -21.49613,22.68574 1.787,5.57287 6.77917,18.93687 -4.41028,12.02563 -10.84957,-5.41557 -10.86061,-19.05636 -16.51905,-28.46532 -4.61056,-9.84756 -10.24207,-19.23006 -14.32368,-29.29094 -3.282,-12.03113 7.9966,-22.23058 17.41524,-27.74033 24.3491,-13.59646 47.15399,-30.61706 74.13712,-38.87449 21.06415,-7.30588 43.40731,-10.40772 65.66158,-10.14283 z"
         id="path3371" />
      <path
         style="fill:#88a6aa;fill-opacity:1;fill-rule:evenodd;stroke:none;stroke-width:1px;stroke-linecap:butt;stroke-linejoin:miter;stroke-opacity:1"
         d="m 388.59375,404.69697 c 0,0 -3.58335,72.04712 -0.82589,71.81702 6.60767,-0.55138 47.4302,-2.82145 54.62754,0.60465 1.78553,-22.95656 2.57251,-44.71453 0.35529,-67.33752 -16.36511,-4.28221 -35.24441,-4.50407 -54.15694,-5.08415 z"
         id="path4686" />
      <path
         style="fill:#01437d;fill-opacity:1;fill-rule:evenodd;stroke:none;stroke-width:1px;stroke-linecap:butt;stroke-linejoin:miter;stroke-opacity:1"
         d="m 264.40743,625.82529 c 0.0238,-0.007 -13.23858,-14.54254 -10.08172,-20.68832 2.189,-4.26154 11.34441,-5.57564 11.40754,-5.32311 0.0631,0.25254 -2.38819,7.72799 -1.13642,11.30109 1.31375,3.75 8.33376,8.52316 8.33376,8.52316 z"
         id="path4577" />
      <path
         style="fill:#01befd;fill-opacity:1;fill-rule:evenodd;stroke:none;stroke-width:1px;stroke-linecap:butt;stroke-linejoin:miter;stroke-opacity:1"
         d="m 273.21429,598.43363 c 0,0 -4.62037,3.38489 -5.71429,5.89286 -0.45278,1.03807 -1.29966,3.55335 -0.17857,3.39286 5.88965,-0.84315 24.92119,-7.19652 40.80357,-6.33929 28.86408,1.55791 80.73162,22.89463 80.05339,23.81948 -17.07165,-12.18992 -41.68259,-28.65302 -68.74769,-32.99161 -6.57156,-1.05344 -31.76529,-2.64446 -46.21641,6.2257 z"
         id="path4587" />
      <path
         style="color:#000000;font-style:normal;font-variant:normal;font-weight:normal;font-stretch:normal;font-size:medium;line-height:normal;font-family:sans-serif;text-indent:0;text-align:start;text-decoration:none;text-decoration-line:none;text-decoration-style:solid;text-decoration-color:#000000;letter-spacing:normal;word-spacing:normal;text-transform:none;direction:ltr;block-progression:tb;writing-mode:lr-tb;baseline-shift:baseline;text-anchor:start;white-space:normal;clip-rule:nonzero;display:inline;overflow:visible;visibility:visible;opacity:1;isolation:auto;mix-blend-mode:normal;color-interpolation:sRGB;color-interpolation-filters:linearRGB;solid-color:#000000;solid-opacity:1;fill:#000000;fill-opacity:1;fill-rule:evenodd;stroke:none;stroke-width:2;stroke-linecap:butt;stroke-linejoin:miter;stroke-miterlimit:4;stroke-dasharray:none;stroke-dashoffset:0;stroke-opacity:1;color-rendering:auto;image-rendering:auto;shape-rendering:auto;text-rendering:auto;enable-background:accumulate"
         d="m 309.375,590.48047 c -16.57402,0.0663 -32.95321,4.08451 -48.43473,9.77721 -2.87335,0.60903 -8.52736,4.21967 -7.72933,5.39271 0.78494,8.3891 4.73212,16.36857 10.97856,22.02738 2.1043,-2.09125 4.10996,-4.09961 7.02792,-5.57902 9.74443,-5.06536 20.31153,-8.79209 31.17129,-10.51705 3.48503,-0.57937 7.60357,-0.26147 10.707,0.21912 -13.31117,-2.94492 -27.06283,1.19388 -39.1778,6.64446 -3.79406,0.74249 -7.79011,6.08353 -10.40328,5.60116 -4.85271,-5.00586 -7.62852,-11.74368 -8.31735,-18.63638 7.00278,-4.40925 15.2916,-6.30818 23.18082,-8.57115 15.27096,-3.82576 31.50699,-6.35726 46.9847,-2.11973 20.09084,5.17206 38.92318,14.60849 56.12671,26.08886 2.34551,1.16069 7.07916,5.60699 7.4856,5.38465 -3.50654,-6.77828 -11.00359,-9.81341 -17.07198,-13.81653 -17.64878,-10.04628 -36.562,-18.98795 -56.91181,-21.54326 -1.86569,-0.19919 -3.74024,-0.32378 -5.61632,-0.35243 z"
         id="path4545" />
      <path
         style="fill:#ffffff;fill-opacity:1;fill-rule:evenodd;stroke:none;stroke-width:1px;stroke-linecap:butt;stroke-linejoin:miter;stroke-opacity:1"
         d="m 281.95883,556.75611 c 6.01144,-2.9646 12.99779,3.85669 19.69797,4.04061 4.29607,0.11792 10.28149,1.62177 12.75318,-1.89403 1.74898,-2.48781 -1.01252,8.83585 -3.6618,12.12183 -3.26384,4.04823 -8.47602,6.94017 -13.63706,7.57614 -4.19509,0.51694 -8.75413,-0.90431 -12.2481,-3.283 -3.33315,-2.2692 -6.82472,-5.70769 -7.19734,-9.72271 -0.30268,-3.26142 1.35552,-7.39012 4.29315,-8.83884 z"
         id="path4563" />
      <path
         style="color:#000000;font-style:normal;font-variant:normal;font-weight:normal;font-stretch:normal;font-size:medium;line-height:normal;font-family:sans-serif;text-indent:0;text-align:start;text-decoration:none;text-decoration-line:none;text-decoration-style:solid;text-decoration-color:#000000;letter-spacing:normal;word-spacing:normal;text-transform:none;direction:ltr;block-progression:tb;writing-mode:lr-tb;baseline-shift:baseline;text-anchor:start;white-space:normal;clip-rule:nonzero;display:inline;overflow:visible;visibility:visible;opacity:1;isolation:auto;mix-blend-mode:normal;color-interpolation:sRGB;color-interpolation-filters:linearRGB;solid-color:#000000;solid-opacity:1;fill:#000000;fill-opacity:1;fill-rule:evenodd;stroke:none;stroke-width:2;stroke-linecap:butt;stroke-linejoin:miter;stroke-miterlimit:4;stroke-dasharray:none;stroke-dashoffset:0;stroke-opacity:1;color-rendering:auto;image-rendering:auto;shape-rendering:auto;text-rendering:auto;enable-background:accumulate"
         d="m 315.70555,543.1685 c 0.87944,1.29842 2.32336,3.15972 2.28897,5.10772 0.29415,3.93045 -2.19175,7.37228 -5.06387,9.79149 -2.9283,2.69463 -7.23782,2.10362 -10.81452,1.41931 -5.73148,-1.13804 -11.23531,-3.31846 -17.05383,-4.00615 -2.93094,-0.36688 -6.58966,0.31315 -7.90285,3.31199 -1.33743,3.36991 -0.79938,7.29108 0.66805,10.53343 2.71746,5.46423 8.33343,9.19591 14.2418,10.34703 5.2285,0.53973 10.34467,-1.59139 14.7396,-4.23952 1.00248,-0.32819 3.14295,-2.68245 2.89382,-2.16102 -2.51158,5.04065 -5.19007,10.53422 -10.3371,13.36413 1.24973,-0.32659 3.28221,-1.96566 4.64405,-3.04367 7.10463,-5.9475 10.96426,-15.01918 12.06256,-24.06789 -0.26983,-1.02803 -1.26489,-1.07052 0.0916,-1.91016 2.41501,-2.38617 4.45449,-6.01892 3.0323,-9.4406 -0.72365,-1.92865 -2.05468,-3.55932 -3.49058,-5.00609 z M 283.125,557.41992 c 5.13793,0.0678 9.9858,2.06114 14.94861,3.16811 4.52098,1.11189 9.53318,2.43619 14.00897,0.46755 1.02214,-0.4468 2.29233,-1.84216 1.3232,0.10057 -1.44293,3.97776 -2.8822,8.18659 -5.8533,11.3076 -3.98131,2.95428 -8.77998,5.12621 -13.79157,5.30579 -4.0569,-0.13 -7.8265,-2.27143 -10.79595,-4.9245 -3.48681,-3.08545 -5.39844,-8.0516 -4.21276,-12.63579 0.50543,-1.95108 2.5124,-2.81225 4.3728,-2.78933 z"
         id="path4549" />
      <path
         style="fill:#ffffff;fill-opacity:1;fill-rule:evenodd;stroke:none;stroke-width:1px;stroke-linecap:butt;stroke-linejoin:miter;stroke-opacity:1"
         d="m 350,556.29078 c 6.77867,1.38932 21.77905,-8.42015 32.5,-13.03572 14.50643,-6.24529 43.03572,-19.82143 43.03572,-19.82143 0,-0.0324 -7.9521,10.73606 -12.32143,20 -4.3423,9.20663 -9.87921,18.5528 -18.03572,24.64286 -8.14476,6.08129 -19.10368,7.35243 -29.10714,5 C 356.67061,570.86578 342.20251,554.69264 350,556.29078 Z"
         id="path4561" />
      <path
         style="fill:#01437d;fill-opacity:1;fill-rule:evenodd;stroke:none;stroke-width:1px;stroke-linecap:butt;stroke-linejoin:miter;stroke-opacity:1"
         d="m 347.48824,560.17849 c 1.00006,8.61346 13.55553,26.4585 22.36568,28.69894 7.81062,1.98625 19.62935,3.74196 28.00322,-0.80094 19.16726,-10.39839 19.42285,-37.90727 32.50001,-55.35715 2.9823,-3.97952 15.02232,-13.95088 15.02232,-13.95088 -6.15418,0.62503 -14.57255,1.83698 -21.4509,6.09374 l -10.52364,18.00431 -5.55584,13.00572 -10.35406,10.10152 -12.12183,8.08122 -13.25826,1.89404 c -10.28221,-2.30237 -17.6671,-8.73343 -24.6267,-15.77052 z"
         id="path4571" />
      <path
         style="color:#000000;font-style:normal;font-variant:normal;font-weight:normal;font-stretch:normal;font-size:medium;line-height:normal;font-family:sans-serif;text-indent:0;text-align:start;text-decoration:none;text-decoration-line:none;text-decoration-style:solid;text-decoration-color:#000000;letter-spacing:normal;word-spacing:normal;text-transform:none;direction:ltr;block-progression:tb;writing-mode:lr-tb;baseline-shift:baseline;text-anchor:start;white-space:normal;clip-rule:nonzero;display:inline;overflow:visible;visibility:visible;opacity:1;isolation:auto;mix-blend-mode:normal;color-interpolation:sRGB;color-interpolation-filters:linearRGB;solid-color:#000000;solid-opacity:1;fill:#000000;fill-opacity:1;fill-rule:evenodd;stroke:none;stroke-width:2;stroke-linecap:butt;stroke-linejoin:miter;stroke-miterlimit:4;stroke-dasharray:none;stroke-dashoffset:0;stroke-opacity:1;color-rendering:auto;image-rendering:auto;shape-rendering:auto;text-rendering:auto;enable-background:accumulate"
         d="m 445.4404,518.7515 c -8.25167,0.59307 -17.01106,0.38409 -24.4091,4.64579 -12.74468,6.10475 -25.60497,11.98124 -38.27639,18.23064 -11.29553,6.10427 -22.78569,14.18368 -36.21315,13.62249 -6.99852,-0.1924 -14.60689,-3.15009 -17.66255,-9.90805 -2.39925,-4.14518 -3.13148,-8.97103 -3.4261,-13.68027 -1.00048,4.31991 0.37265,9.3323 1.78623,13.63311 2.07406,7.57743 10.13619,11.28532 17.40323,11.82587 0.66597,9.0802 2.02522,18.24308 6.09531,26.49698 1.20802,2.46243 3.45019,8.42795 4.33269,8.83624 -1.91644,-7.08615 -4.47094,-13.99757 -6.5025,-21.03298 -0.45322,-2.83651 -0.75709,-4.70828 0.79693,-1.07532 3.57348,6.39546 9.09467,11.46163 15.03069,15.63964 -3.14745,-3.64518 -8.23191,-7.86203 -10.95788,-12.68745 -2.3623,-3.33394 -5.46219,-10.54102 -5.27384,-12.46344 3.79524,6.33192 9.45574,11.79929 16.7851,13.65817 11.65018,3.69194 25.00661,0.47797 33.73773,-8.07123 6.43777,-5.47985 11.25767,-12.56779 14.44282,-20.37137 3.37895,-8.3305 8.71253,-15.60344 13.92115,-22.85306 5.83513,-2.47632 12.44553,-2.96754 18.38963,-4.44576 z m -21.54392,5.50241 c -5.46593,7.20735 -10.24252,14.9232 -13.71176,23.29645 -4.23158,9.86765 -11.95947,18.19958 -21.36474,23.33102 -10.28009,4.93641 -23.68872,4.12355 -32.5977,-3.27145 -2.69737,-2.80512 -7.35871,-7.74182 -7.32372,-10.37172 13.94219,-0.31535 25.47012,-9.11739 37.4149,-15.19096 12.52764,-5.93112 25.05553,-11.8622 37.58302,-17.79334 z"
         id="path4557" />
      <path
         style="fill:url(#linearGradient4626);fill-opacity:1;fill-rule:evenodd;stroke:none;stroke-width:1px;stroke-linecap:butt;stroke-linejoin:miter;stroke-opacity:1"
         d="m 308.72787,587.06069 c 9.50081,-10.37702 11.173,-23.49405 14.26841,-36.11296 5.20989,15.09377 11.75555,29.51966 20.32932,42.93149 -11.89469,-3.72128 -24.28448,-9.42299 -34.59773,-6.81853 z"
         id="path4591" />
      <path
         style="fill:url(#linearGradient4610);fill-opacity:1;fill-rule:evenodd;stroke:none;stroke-width:1px;stroke-linecap:butt;stroke-linejoin:miter;stroke-opacity:1"
         d="m 329.18345,536.93187 c 3.88108,8.57857 4.75817,17.30688 20.32933,15.78363 23.19781,-2.26933 68.28511,-32.80238 61.87184,-28.5368 -4.06762,2.70544 -81.88027,18.92073 -82.20117,12.75317 z"
         id="path4593" />
      <path
         style="fill:url(#linearGradient4618);fill-opacity:1;fill-rule:evenodd;stroke:none;stroke-width:1px;stroke-linecap:butt;stroke-linejoin:miter;stroke-opacity:1"
         d="m 282.23214,549.2372 c 7.09798,1.20777 16.70685,1.379 22.32143,1.07143 5.61458,-0.30757 11.25,-1.78571 11.25,-1.78571 0,0 0.54362,6.07935 -1.51785,7.67857 -4.6163,3.58116 -11.65135,-1.41491 -17.5,-1.875 -4.72354,-0.37158 -12.22128,1.14296 -14.19643,-0.71429 -1.06595,-1.00232 -1.7996,-4.62044 -0.35715,-4.375 z"
         id="path4595" />
      <path
         style="fill:#000000;fill-opacity:1;fill-rule:evenodd;stroke:none;stroke-width:1px;stroke-linecap:butt;stroke-linejoin:miter;stroke-opacity:1"
         d="m 240.35714,454.14792 c 0.13107,29.57907 13.23521,45.83036 27.85715,60.35714 l -6.42858,10.35714 3.63187,17.37297 -11.11168,-1.76777 -12.2481,-15.27856 -3.6618,-15.15228 -15.53109,-29.54697 1.51522,-12.6269 z"
         id="path4638" />
      <path
         style="fill:#000000;fill-opacity:1;fill-rule:evenodd;stroke:none;stroke-width:1px;stroke-linecap:butt;stroke-linejoin:miter;stroke-opacity:1"
         d="m 436.42857,408.07649 c 11.28064,27.93379 4.73298,46.80501 2.2549,68.71937 l 18.10225,4.49492 9.14714,19.40187 8.83884,-10.98541 -1.51523,-15.5311 -10.2278,-26.39023 2.52539,-23.23351 -10.60661,-11.8693 z"
         id="path4640" />
      <path
         style="fill:#000000;fill-opacity:1;fill-rule:evenodd;stroke:none;stroke-width:1px;stroke-linecap:butt;stroke-linejoin:miter;stroke-opacity:1"
         d="m 251.52798,666.48393 c 0,0 -11.41568,18.22954 -16.54124,27.40039 -5.44163,9.73638 -10.73287,31.69354 -10.73287,31.69354 l -10.10153,-1.51523 1.26269,-6.31346 7.70241,-15.65736 4.16688,-21.59201 12.37437,-11.11168 z"
         id="path4642" />
      <path
         style="fill:#000000;fill-opacity:1;fill-rule:evenodd;stroke:none;stroke-width:1px;stroke-linecap:butt;stroke-linejoin:miter;stroke-opacity:1"
         d="m 437.39605,721.03217 c 0,0 -2.92264,23.5148 -8.08121,34.09264 -5.15858,10.57785 -31.73533,24.17867 -31.73533,24.17867 l 37.79624,30.36958 11.61675,-25.25382 12.62691,-34.59772 c -4.93485,-10.09104 -14.14788,-19.32644 -22.22336,-28.78935 z"
         id="path4644" />
      <path
         style="fill:#3a6979;fill-opacity:1;fill-rule:evenodd;stroke:none;stroke-width:1px;stroke-linecap:butt;stroke-linejoin:miter;stroke-opacity:1"
         d="m 407.18122,405.28058 c 4.46186,0.11085 9.07888,0.46242 12.73039,0.86651 -2.87081,23.3323 -2.8156,46.50008 0.0277,69.11812 -3.8258,0.0386 -7.1491,0.11843 -12.97414,0.25254 1.4039,-23.56549 1.89583,-47.14609 0.21605,-70.23717 z"
         id="path4690" />
      <path
         style="fill:url(#linearGradient4702);fill-opacity:1;fill-rule:evenodd;stroke:none;stroke-width:1px;stroke-linecap:butt;stroke-linejoin:miter;stroke-opacity:1"
         d="m 239.91123,454.60444 c 1.26098,0.84065 31.72173,-18.44651 46.97209,-27.27412 7.5008,-4.34181 15.61015,-7.59964 23.73859,-10.60661 8.1529,-3.01601 16.51578,-5.47739 25.00127,-7.4183 l 10.35407,73.39389 c -27.09524,6.80801 -63.38166,17.21315 -78.28682,31.50414 -16.27101,-14.46181 -27.61348,-32.7227 -27.7792,-59.599 z"
         id="path4692" />
      <path
         style="fill:#7c9da2;fill-opacity:1;fill-rule:evenodd;stroke:none;stroke-width:1px;stroke-linecap:butt;stroke-linejoin:miter;stroke-opacity:1"
         d="m 312.76848,415.9661 c 5.2021,-1.87747 10.31629,-3.4801 15.55478,-4.85505 2.48218,25.12578 5.91623,49.65465 10.75383,73.43448 -5.56058,1.51708 -11.04161,2.74826 -16.84226,4.56352 -2.99459,-24.50792 -3.76768,-49.23593 -9.46635,-73.14295 z"
         id="path4694" />
      <path
         style="fill:#bdc9c5;fill-opacity:1;fill-rule:evenodd;stroke:none;stroke-width:1px;stroke-linecap:butt;stroke-linejoin:miter;stroke-opacity:1"
         d="m 255.53702,446.27067 c 6.3841,-4.1992 12.76508,-8.20107 19.63485,-11.99555 -0.14261,25.12902 9.19451,44.5322 21.53653,63.81911 -5.70186,2.00645 -11.21315,4.63372 -16.53966,7.4113 -8.34925,-19.68829 -21.80178,-35.43 -24.63172,-59.23486 z"
         id="path4704" />
      <path
         style="fill:#92afb3;fill-opacity:1;fill-rule:evenodd;stroke:none;stroke-width:1px;stroke-linecap:butt;stroke-linejoin:miter;stroke-opacity:1"
         d="m 342.88784,751.9996 c 27.14246,10.23788 29.15404,11.41894 58.94104,25.0422 17.00853,-9.17498 28.83971,-14.89058 32.159,-35.61795 1.5336,-7.24778 3.27424,-18.33943 3.27424,-18.33943 -13.37281,-10.32512 -19.00229,-15.91978 -47.02756,-27.93741 -22.8807,15.80471 -30.97455,36.47507 -47.34672,56.85259 z"
         id="path4714" />
      <path
         style="fill:#3a6a79;fill-opacity:1;fill-rule:evenodd;stroke:none;stroke-width:1px;stroke-linecap:butt;stroke-linejoin:miter;stroke-opacity:1"
         d="m 410.68024,704.76277 c 5.62877,2.66475 10.50715,6.11503 14.53596,9.05384 -12.77434,5.30283 -23.68041,34.33685 -35.34878,57.77762 -5.76541,-2.25328 -11.68888,-5.29857 -17.74242,-8.00691 16.63046,-15.72651 26.81561,-37.9849 38.55524,-58.82455 z"
         id="path4716" />
      <path
         style="fill:url(#linearGradient4734);fill-opacity:1;fill-rule:evenodd;stroke:none;stroke-width:1px;stroke-linecap:butt;stroke-linejoin:miter;stroke-opacity:1"
         d="m 250.56396,667.98013 c 13.67141,-4.97953 38.13392,-0.32539 59.63873,2.66928 5.96507,0.83067 11.59558,2.21322 16.8342,3.58744 -13.68813,31.49384 -21.88804,45.88508 -24.30681,63.68381 -24.60829,-6.04051 -50.72797,-11.1814 -77.20407,-16.99515 2.7098,-19.33672 14.42239,-35.03169 25.03795,-52.94538 z"
         id="path4718" />
      <path
         style="fill:#7d9ea3;fill-opacity:1;fill-rule:evenodd;stroke:none;stroke-width:1px;stroke-linecap:butt;stroke-linejoin:miter;stroke-opacity:1"
         d="m 302.02298,669.28711 c 0.88389,0.35355 11.84404,1.85615 11.84404,1.85615 -13.51041,19.47548 -14.50517,42.6593 -21.74353,63.99317 l -15.11441,-3.27037 c 12.28589,-17.30652 16.90816,-41.5103 25.0139,-62.57895 z"
         id="path4736" />
      <path
         style="fill:#bdc9c5;fill-opacity:1;fill-rule:evenodd;stroke:none;stroke-width:1px;stroke-linecap:butt;stroke-linejoin:miter;stroke-opacity:1"
         d="m 262.95841,665.9064 c 6.25704,-0.20414 12.19358,0.27642 18.74675,0.7942 -2.2124,15.73687 -13.80823,38.19138 -22.25203,61.50536 -5.62521,-1.01315 -11.21587,-2.03835 -16.71875,-3.5 11.94719,-21.36098 20.01873,-42.71738 20.22403,-58.79956 z"
         id="path4738" />
      <path
         style="color:#000000;font-style:normal;font-variant:normal;font-weight:normal;font-stretch:normal;font-size:medium;line-height:normal;font-family:sans-serif;text-indent:0;text-align:start;text-decoration:none;text-decoration-line:none;text-decoration-style:solid;text-decoration-color:#000000;letter-spacing:normal;word-spacing:normal;text-transform:none;direction:ltr;block-progression:tb;writing-mode:lr-tb;baseline-shift:baseline;text-anchor:start;white-space:normal;clip-rule:nonzero;display:inline;overflow:visible;visibility:visible;opacity:1;isolation:auto;mix-blend-mode:normal;color-interpolation:sRGB;color-interpolation-filters:linearRGB;solid-color:#000000;solid-opacity:1;fill:#ffffff;fill-opacity:1;fill-rule:evenodd;stroke:none;stroke-width:3;stroke-linecap:butt;stroke-linejoin:miter;stroke-miterlimit:4;stroke-dasharray:none;stroke-dashoffset:0;stroke-opacity:1;color-rendering:auto;image-rendering:auto;shape-rendering:auto;text-rendering:auto;enable-background:accumulate"
         d="m 225.67188,720.87695 c -4.18716,-1.44701 -14.78427,10.45689 -6.36813,3.37291 7.85153,-5.19752 17.76986,0.85569 26.47727,1.14104 55.02357,10.25626 108.55355,28.63221 158.27958,54.30636 6.93233,4.68407 15.63095,10.34486 15.30153,19.82427 0.72587,-7.91004 -4.31569,-14.33438 -10.59286,-18.40401 -12.3265,-7.7972 -26.0644,-13.11608 -39.29878,-19.17132 -45.92616,-19.73327 -94.35395,-33.6727 -143.79861,-41.06925 z"
         id="path4740" />
    </g>
  </g>
</svg>
